<svg xmlns="http://www.w3.org/2000/svg" xmlns:xlink="http://www.w3.org/1999/xlink" width="40" zoomAndPan="magnify" viewBox="0 0 30 30.000001" height="40" preserveAspectRatio="xMidYMid meet" version="1.0"><defs><g/></defs><g fill="#ffffff" fill-opacity="1"><g transform="translate(0.48387, 22.52588)"><g><path d="M 6.867188 0 L 6.867188 -0.230469 C 4.898438 -0.230469 4.761719 -1.855469 4.761719 -6.363281 L 4.761719 -15.675781 C 5.859375 -16.066406 7.140625 -16.339844 8.308594 -16.339844 C 9.863281 -16.339844 13.457031 -16.203125 13.457031 -11.078125 C 13.457031 -11.078125 13.480469 -7.050781 13.480469 -6.363281 C 13.480469 -1.855469 13.34375 -0.230469 11.375 -0.230469 L 11.375 0 L 17.554688 0 L 17.554688 -0.230469 C 15.585938 -0.230469 15.449219 -1.855469 15.449219 -6.363281 L 15.449219 -11.558594 C 15.449219 -13.25 14.945312 -14.394531 14.191406 -15.152344 C 15.632812 -16 17.300781 -16.363281 18.972656 -16.363281 C 20.53125 -16.363281 24.125 -16.203125 24.125 -11.078125 C 24.125 -11.078125 24.144531 -7.050781 24.144531 -6.363281 C 24.144531 -1.855469 24.007812 -0.230469 22.039062 -0.230469 L 22.039062 0 L 28.21875 0 L 28.21875 -0.230469 C 26.25 -0.230469 26.113281 -1.855469 26.113281 -6.363281 L 26.113281 -11.558594 C 26.113281 -16.363281 22.039062 -16.660156 20.003906 -16.660156 C 16.433594 -16.660156 14.191406 -15.722656 13.457031 -15.722656 C 12.128906 -16.570312 10.4375 -16.660156 9.339844 -16.660156 C 8.035156 -16.660156 5.171875 -16.203125 3.296875 -16.203125 L 0.6875 -16.203125 L 0.6875 -15.976562 C 2.65625 -15.976562 2.792969 -14.351562 2.792969 -9.839844 L 2.792969 -6.363281 C 2.792969 -1.855469 2.65625 -0.230469 0.6875 -0.230469 L 0.6875 0 Z M 6.867188 0 "/></g></g></g></svg>